<?xml version="1.0" encoding="UTF-8"?>
<svg xmlns="http://www.w3.org/2000/svg" viewBox="0 0 1024 1024" width="200" height="200"><rect x="0" y="0" width="1024" height="1024" fill="#fff"/>
  <path d="M888 969L852 951L818 931L787 908L758 883L732 854L708 823L687 790L670 754L658 719L649 719L625 773L592 825L549 868L497 905L438 935L371 957L296 973L214 981L213 972L292 953L362 930L423 902L475 871L517 835L552 794L577 749L588 719L300 719L300 697L595 697L605 644L607 595L349 595L349 573L608 573L608 477L437 477L437 493L373 525L373 267L437 299L843 299L875 272L934 321L907 342L907 487L843 520L843 477L672 477L672 573L833 573L876 525L930 573L930 595L671 595L666 653L655 697L861 697L915 643L980 697L980 719L671 719L689 742L714 771L738 798L764 823L791 844L820 863L849 880L880 894L912 906L946 915L989 928L926 984L888 969ZM188 789L191 794L202 827L210 864L214 904L214 947L203 968L180 976L158 965L150 942L153 904L153 870L150 839L143 811L135 786L123 764L108 743L89 725L66 708L39 692L43 683L75 690L104 701L131 718L142 727L149 711L159 684L173 649L190 607L210 557L232 500L258 434L288 362L322 282L331 284L307 368L286 444L266 511L248 571L233 622L221 665L210 701L203 729L199 748L197 759L188 789ZM137 441L131 430L124 420L115 408L105 397L93 386L80 375L65 364L50 353L31 343L35 334L55 339L75 343L94 349L112 356L129 364L145 373L159 383L173 394L186 406L196 419L200 444L185 463L161 466L141 452L137 441ZM608 321L437 321L437 455L608 455L608 321ZM843 321L672 321L672 455L843 455L843 321ZM725 36L789 47L806 57L789 67L789 143L868 143L922 90L986 143L986 165L789 165L789 240L725 272L725 165L554 165L554 240L490 272L490 165L294 165L294 143L490 143L490 36L554 47L571 57L554 67L554 143L725 143L725 36ZM218 184L213 174L206 164L198 153L188 142L177 130L164 119L150 107L134 96L116 85L120 76L140 83L160 87L179 94L196 101L213 109L228 118L242 127L255 137L267 149L278 162L280 186L266 205L242 208L222 193L218 184Z" />
</svg>