<?xml version="1.0" encoding="UTF-8"?>
<svg xmlns="http://www.w3.org/2000/svg" viewBox="0 0 1024 1024" width="200" height="200"><rect x="0" y="0" width="1024" height="1024" fill="#fff"/>
  <path d="M635.50 867L635.50 709.50L495 730L482 705.50L635.50 684L635.50 518Q733 522.50 733 542.50L733 542.50Q733 554.50 694 570L694 570L694 675.50L862 652L897 585.50Q940 614.50 970.50 645L970.50 645L962.50 663.50L694 701.50L694 861Q694 886 709.50 891L709.50 891Q723 897 777 897L777 897Q851.50 897 864 867.50L864 867.50Q875 841 882.50 760.50L882.50 760.50L906 766Q906 845.50 915 867L915 867Q922.50 883 945 884.50L945 884.50Q943.50 922 911 932.50L911 932.50Q877.50 944 779 944L779 944Q684 944 661 931.50L661 931.50Q635.50 918 635.50 867L635.50 867ZM860.50 213L374 270L374 400.50Q374 429.50 395.50 434.50L395.50 434.50Q418.50 440.50 505 440.50L505 440.50Q564 440.50 668 436.50L668 436.50Q702 435 711 414L711 414Q722 390.50 732.50 304L732.50 304L755 310Q755 384.50 764 407.50L764 407.50Q772 426.50 796 428L796 428Q794.50 470 755 479L755 479Q710 488.50 527.50 488.50L527.50 488.50Q367.50 488.50 340 474L340 474Q314.50 459 314.50 408.50L314.50 408.50L314.50 277.50L83 305L73 280.50L314.50 252L314.50 83Q415 87.50 415 106.50L415 106.50Q415 119 374 137L374 137L374 244.50L729.50 202.50L774.50 135Q816.50 158 867.50 192.50L867.50 192.50L860.50 213ZM199.50 868L199.50 710.50L58 731L45 706.50L199.50 685L199.50 519Q298 523.50 298 543.50L298 543.50Q298 557.50 258 571.50L258 571.50L258 676.50L437 651L469 586.50Q502.50 612.50 533.50 646L533.50 646L525.50 664.50L258 702.50L258 862Q258 886.50 273.50 893L273.50 893Q290.50 898 337 898L337 898Q410 898 424 876.50L424 876.50Q436.50 855.50 447.50 761.50L447.50 761.50L470 768L470 770Q470 834.50 476 859L476 859Q484 883.50 508 886.50L508 886.50Q506.50 925 471 936L471 936Q438.50 945 334 945L334 945Q243 945 222 930.50L222 930.50Q199.50 914 199.50 868L199.50 868Z" />
</svg>