<svg xmlns="http://www.w3.org/2000/svg" xmlns:xlink="http://www.w3.org/1999/xlink" version="1.1" baseProfile="full" viewBox="0 0 200 200" width="200" height="200">
<path d="M0 0 L 200 0 L 200 200 L 0 200" style="fill:#FFFFFF;stroke-width:0" />
<g fill="black">
<path d="M 138.0 168.4 L 122.3 158.5 L 108.1 147.5 L 99.81627330780029 139.47717809677124 L 86.6 151.1 L 70.9 162.2 L 53.6 171.9 L 34.7 180.1 L 14.2 186.8 L 13.7 185.1 L 33.2 176.6 L 51.0 167.1 L 67.2 156.7 L 81.8 145.3 L 93.94820861816406 133.43430786132814 L 84.3 121.7 L 74.8 107.0 L 66.9 91.2 L 60.7 74.2 L 56.518784523010254 57.0 L 17.0 57.0 L 17.0 53.0 L 94.0 53.0 L 94.0 14.0 L 106.0 16.0 L 109.0 18.0 L 106.0 19.8 L 106.0 53.0 L 161.0 53.0 L 171.0 43.0 L 183.0 53.0 L 183.0 57.0 L 146.58376960754396 57.0 L 140.9 75.4 L 133.4 93.2 L 124.1 109.7 L 113.3 124.8 L 106.3809154510498 132.43295831680297 L 114.6 139.6 L 128.4 149.4 L 143.6 157.9 L 160.1 165.4 L 178.0 171.7 L 185.5 174.1 L 173.9 184.2 L 155.2 176.9 Z M 64.6 72.8 L 72.2 88.7 L 80.9 103.2 L 90.9 116.6 L 99.92723731994629 126.3526403427124 L 105.9 119.1 L 115.6 104.4 L 123.6 88.6 L 130.2 71.7 L 134.16107788085938 57.0 L 58.5941520690918 57.0 Z " />
</g>
</svg>
